<svg width="865" height="283" viewBox="0 0 865 283" fill="none" xmlns="http://www.w3.org/2000/svg">
<path d="M850.774 227.484C851.043 227.692 851.081 227.989 850.889 228.376C850.749 228.697 850.492 228.82 850.12 228.747L835.942 225.67C835.57 225.597 835.216 225.431 834.881 225.172C833.874 224.394 833.342 223.072 833.284 221.206C833.344 219.324 833.992 217.306 835.227 215.153L828.109 214.797C825.617 214.694 823.518 214.358 821.813 213.791C820.176 213.276 818.551 212.396 816.941 211.152C814.19 209.027 812.568 206.756 812.077 204.341C811.704 201.91 812.347 199.621 814.006 197.474C815.406 195.662 817.016 194.548 818.837 194.133C820.725 193.77 822.666 193.823 824.661 194.293C826.774 194.747 829.722 195.578 833.504 196.785L846.068 200.704L850.733 194.664C853.947 190.504 855.844 187.147 856.423 184.594C857.121 182.026 856.564 180.042 854.752 178.642C852.538 176.932 850.279 176.526 847.977 177.426C845.793 178.311 843.823 179.682 842.066 181.54C839.02 184.651 835.987 185.041 832.967 182.708C831.491 181.567 830.643 180.377 830.423 179.135C830.27 177.946 830.583 176.848 831.36 175.841C832.812 173.962 835.319 173.006 838.881 172.972C842.562 172.922 846.395 173.579 850.378 174.942C854.48 176.289 857.74 177.896 860.155 179.762C863.041 181.991 864.623 184.66 864.901 187.768C865.246 190.927 864.019 194.319 861.219 197.943L847.223 216.061C845.616 218.142 844.733 219.978 844.575 221.57C844.416 223.162 844.974 224.451 846.25 225.435C847.256 226.213 848.697 226.844 850.573 227.329L850.774 227.484ZM836.27 213.387L844.746 202.415L836.762 200.266C834.499 199.589 832.434 199.28 830.568 199.338C828.82 199.381 827.298 200.241 826.002 201.919C824.758 203.529 824.251 205.227 824.48 207.011C824.828 208.78 825.74 210.234 827.216 211.375C828.424 212.308 830.01 212.89 831.974 213.122L836.27 213.387Z" fill="#E4002B"/>
<path d="M814.809 205.365C815.023 205.501 814.994 205.784 814.72 206.213C814.447 206.642 814.203 206.789 813.989 206.652C812.201 205.513 810.793 204.567 809.765 203.812L803.718 199.81L795.603 194.794C794.342 194.091 792.674 193.079 790.6 191.758C790.457 191.667 790.522 191.407 790.795 190.978C791.068 190.549 791.276 190.38 791.42 190.471C794.352 192.338 796.297 192.521 797.253 191.019C797.663 190.375 797.832 189.478 797.761 188.326L795.73 163.811L790.735 164.55L783.903 175.279C782.035 178.212 781.176 180.429 781.325 181.932C781.546 183.48 782.872 185.028 785.304 186.576C785.59 186.759 785.597 187.064 785.323 187.494C785.05 187.923 784.77 188.046 784.484 187.864C782.696 186.725 781.288 185.779 780.261 185.024L774.214 181.022L768.03 177.235C766.912 176.624 765.458 175.748 763.67 174.61C763.456 174.473 763.485 174.19 763.758 173.761C764.031 173.332 764.275 173.186 764.49 173.322C766.85 174.825 768.779 175.35 770.274 174.895C771.816 174.368 773.498 172.675 775.32 169.814L810.231 114.989C811.826 112.486 812.714 110.538 812.896 109.146C813.124 107.683 812.666 106.587 811.522 105.858C810.449 105.175 808.709 104.671 806.303 104.345L806.196 104.276C805.981 104.14 805.881 103.824 805.894 103.33C806.024 102.81 806.219 102.582 806.479 102.647L825.902 105.063L826.506 105.297C826.792 105.479 826.987 105.805 827.091 106.273C827.267 106.787 827.286 107.151 827.15 107.365L792.169 162.297L810.208 159.308C813.304 158.867 815.376 157.823 816.423 156.178C817.015 155.248 817.065 154.224 816.571 153.105C816.148 152.032 815.186 151.017 813.684 150.061C813.469 149.924 813.499 149.641 813.772 149.212C814.045 148.783 814.289 148.637 814.504 148.773C816.506 150.049 818.057 151.086 819.156 151.887L827.242 157.186L834.928 161.93C835.974 162.496 837.356 163.326 839.073 164.419C839.288 164.555 839.258 164.838 838.985 165.267C838.712 165.697 838.468 165.843 838.253 165.706C835.32 163.839 831.516 162.472 826.84 161.605C822.21 160.668 817.433 160.591 812.51 161.377L805.369 162.409L807.614 190.378C807.931 194.3 808.691 197.448 809.893 199.822C811.096 202.196 812.734 204.044 814.809 205.365Z" fill="#E4002B"/>
<path d="M770.553 169.049C770.703 169.128 770.775 169.357 770.768 169.736C770.836 170.154 770.756 170.399 770.527 170.471C766.411 171.572 762.648 171.996 759.239 171.744C755.869 171.417 752.569 170.408 749.338 168.718C744.755 166.321 741.303 163.223 738.983 159.426C736.738 155.668 735.579 151.664 735.505 147.415C735.506 143.204 736.509 139.183 738.513 135.351C740.832 130.918 744.044 127.431 748.149 124.889C752.254 122.347 756.735 121.006 761.592 120.868C766.564 120.693 771.379 121.824 776.038 124.261C780.546 126.619 783.47 129.536 784.81 133.012C786.15 136.488 785.699 140.368 783.459 144.651C782.319 146.83 781.299 147.683 780.397 147.212L752.837 132.94C752.409 133.576 751.84 134.571 751.133 135.924C747.674 142.536 746.426 148.582 747.388 154.061C748.464 159.504 751.819 163.7 757.455 166.648C759.559 167.748 761.442 168.446 763.106 168.742C764.809 168.963 767.196 169.064 770.269 169.044L770.553 169.049ZM770.801 124.393C768.021 122.939 765.16 122.829 762.216 124.065C759.388 125.265 756.69 127.586 754.124 131.029L772.334 140.123C776.271 132.23 775.76 126.987 770.801 124.393Z" fill="#E4002B"/>
<path d="M734.768 149.708C735 149.811 735.126 150.052 735.143 150.431C735.239 150.844 735.136 151.076 734.834 151.128C730.764 152.572 727.175 153.347 724.067 153.455C720.993 153.485 718.022 152.865 715.153 151.595C711.819 150.119 709.332 148.09 707.693 145.51C706.165 142.886 706.225 139.713 707.873 135.991L719.511 109.706C720.644 107.148 720.973 105.253 720.498 104.023C720.1 102.826 718.738 101.713 716.412 100.683C716.335 100.649 716.253 100.52 716.166 100.296C716.192 100.029 716.256 99.7796 716.359 99.547C716.462 99.3144 716.586 99.1377 716.733 99.017C716.991 98.853 717.159 98.7882 717.236 98.8225C724.662 101.739 730.627 100.625 735.131 95.4784C735.424 95.237 735.802 95.2192 736.268 95.4252C736.81 95.6655 737.013 95.9407 736.876 96.2509L732.808 105.439C736.486 106.975 741.814 108.87 748.791 111.125C748.946 111.194 748.964 111.572 748.844 112.261C748.837 112.907 748.678 113.579 748.369 114.277C748.06 114.974 747.596 115.604 746.977 116.164C746.435 116.759 746.027 116.949 745.751 116.734C741.855 113.804 737.129 110.969 731.572 108.23L719.11 136.376C717.771 139.4 717.512 141.975 718.333 144.1C719.265 146.182 721.089 147.824 723.802 149.026C727.059 150.468 730.619 150.699 734.484 149.721L734.768 149.708Z" fill="#E4002B"/>
<path d="M673.497 135.108C668.706 133.393 664.875 130.761 662.003 127.21C659.16 123.58 657.426 119.492 656.802 114.946C656.207 110.319 656.723 105.731 658.353 101.18C660.21 95.9908 663.06 92.0572 666.901 89.3792C670.85 86.65 675.135 85.1217 679.755 84.7944C684.484 84.4159 688.964 84.984 693.195 86.4988C698.065 88.2422 701.882 90.9146 704.646 94.516C707.489 98.1459 709.183 102.22 709.728 106.738C710.3 111.176 709.815 115.551 708.271 119.862C706.557 124.652 703.83 128.494 700.092 131.389C696.433 134.313 692.236 136.098 687.502 136.744C682.795 137.311 678.127 136.766 673.497 135.108ZM677.947 133.999C681.459 135.257 684.691 134.657 687.642 132.201C690.673 129.773 693.26 125.566 695.403 119.578C697.318 114.229 698.232 109.287 698.144 104.753C698.136 100.246 697.226 96.4982 695.415 93.5079C693.683 90.5462 691.34 88.5366 688.386 87.4791C684.794 86.1929 681.55 86.6981 678.657 88.9946C675.763 91.2911 673.287 95.3135 671.229 101.062C669.372 106.251 668.378 111.164 668.249 115.801C668.229 120.387 669.041 124.281 670.687 127.482C672.413 130.712 674.833 132.884 677.947 133.999Z" fill="#E4002B"/>
<path d="M660.763 75.4382C662.643 75.9587 664.271 77.0695 665.647 78.7705C667.024 80.4716 667.475 82.1802 667 83.8963C666.57 85.449 665.729 86.5799 664.476 87.289C663.306 88.0208 661.903 88.1603 660.269 87.7077C659.207 87.4136 658.364 86.9603 657.742 86.348C657.224 85.6767 656.71 84.8306 656.201 83.8097C655.669 82.8705 655.163 82.1583 654.681 81.673C654.222 81.106 653.584 80.7093 652.767 80.483C651.868 80.2341 650.785 80.3303 649.519 80.7716C648.358 81.1538 646.409 82.154 643.673 83.7721L636.341 110.25C635.708 112.538 635.548 114.386 635.862 115.792C636.199 117.118 637.076 118.24 638.493 119.161C639.91 120.081 642.13 120.96 645.154 121.797C645.481 121.887 645.576 122.178 645.441 122.668C645.305 123.158 645.074 123.358 644.747 123.268C642.05 122.521 639.896 121.881 638.284 121.346L628.634 118.542L621.49 116.696C620.323 116.461 618.718 116.06 616.675 115.495C616.43 115.427 616.376 115.148 616.511 114.657C616.647 114.167 616.838 113.956 617.083 114.024C619.861 114.793 621.858 114.73 623.074 113.835C624.29 112.94 625.362 110.817 626.289 107.466L632.773 84.0532C633.497 81.4381 633.702 79.4271 633.388 78.0202C633.155 76.636 632.344 75.7516 630.955 75.3669C629.729 75.0274 627.516 75.0746 624.317 75.5084L624.194 75.4744C623.867 75.3839 623.679 75.1117 623.628 74.6578C623.578 74.204 623.687 73.9701 623.954 73.9563L642.185 70.5578C642.721 70.5301 643.029 70.5276 643.111 70.5502C643.928 70.7765 644.497 71.9017 644.816 73.9259C645.158 75.8684 645.015 78.2923 644.386 81.1978C648.569 78.4847 651.915 76.7276 654.425 75.9267C656.934 75.1259 659.047 74.963 660.763 75.4382Z" fill="#E4002B"/>
<path d="M620.839 107.844C621.088 107.899 621.258 108.11 621.351 108.477C621.527 108.863 621.473 109.112 621.188 109.223C617.487 111.449 614.125 112.925 611.101 113.65C608.095 114.293 605.059 114.278 601.995 113.605C598.433 112.823 595.592 111.332 593.471 109.13C591.451 106.863 590.877 103.742 591.749 99.7667L597.912 71.6889C598.512 68.9557 598.456 67.0335 597.745 65.9225C597.116 64.8296 595.56 64.0105 593.075 63.4652C592.992 63.447 592.886 63.3369 592.757 63.1349C592.729 62.8683 592.742 62.6107 592.796 62.3622C592.851 62.1138 592.938 61.9158 593.057 61.7683C593.277 61.5562 593.429 61.4592 593.511 61.4774C601.37 62.8548 606.993 60.5729 610.38 54.6316C610.618 54.3366 610.986 54.2437 611.483 54.3528C612.063 54.48 612.316 54.7093 612.244 55.0406L610.09 64.8554C614.001 65.6269 619.599 66.4216 626.886 67.2395C627.052 67.2759 627.145 67.6435 627.165 68.3425C627.286 68.9768 627.265 69.6667 627.101 70.4121C626.938 71.1575 626.608 71.8666 626.114 72.5393C625.701 73.2302 625.339 73.4979 625.026 73.3423C620.624 71.2477 615.427 69.4126 609.435 67.8371L602.837 97.9027C602.128 101.133 602.387 103.708 603.616 105.627C604.945 107.481 607.059 108.726 609.958 109.363C613.437 110.126 616.972 109.643 620.564 107.914L620.839 107.844Z" fill="#E4002B"/>
<path d="M567.612 62.1271C567.184 64.7206 567.703 67.041 569.169 69.0882C570.72 71.1493 573.051 73.4253 576.163 75.9164C578.898 78.0873 580.971 79.8479 582.381 81.1982C583.874 82.5623 585.055 84.2614 585.922 86.2955C586.873 88.3435 587.134 90.6642 586.705 93.2578C586.235 96.1023 585.088 98.6201 583.265 100.811C581.442 103.002 578.984 104.616 575.89 105.652C572.881 106.702 569.452 106.908 565.603 106.272C561.002 105.512 556.97 103.643 553.509 100.664C553.09 100.079 552.922 99.5358 553.005 99.0339L554.662 87.447C554.703 87.196 554.933 87.1051 555.351 87.1742C555.867 87.1735 556.153 87.2637 556.209 87.4449C556.94 91.863 558.507 95.6457 560.909 98.7929C563.395 101.954 566.269 103.804 569.532 104.343C571.623 104.689 573.345 104.415 574.696 103.521C576.047 102.627 576.902 101.092 577.261 98.9167C577.787 95.7375 577.281 93.0756 575.745 90.9309C574.222 88.7025 571.856 86.3777 568.646 83.9565C566.051 81.9805 564.041 80.3593 562.617 79.0926C561.207 77.7424 560.062 76.092 559.181 74.1415C558.398 72.1212 558.227 69.7725 558.669 67.0953C559.457 62.3266 561.76 59.0543 565.577 57.2786C569.478 55.5167 573.897 55.0436 578.833 55.8593C582.096 56.3984 585.338 57.5789 588.561 59.4007C589.259 59.8597 589.559 60.3821 589.463 60.9677C589.145 62.8919 588.854 64.391 588.59 65.4647L587.47 71.4677C587.428 71.7187 587.156 71.8027 586.654 71.7197C586.152 71.6368 585.922 71.4698 585.964 71.2188C586.24 69.5456 585.854 67.7199 584.806 65.7418C583.772 63.68 582.305 61.8907 580.407 60.3738C578.509 58.8569 576.473 57.9188 574.297 57.5593C570.449 56.9234 568.221 58.446 567.612 62.1271Z" fill="#E4002B"/>
<path d="M547.209 37.6356C545.021 37.3701 543.367 36.5714 542.247 35.2397C541.211 33.9182 540.826 32.1631 541.092 29.9744C541.347 27.87 542.131 26.3421 543.442 25.3907C544.848 24.3654 546.645 23.9856 548.833 24.2511C550.938 24.5065 552.508 25.2949 553.543 26.6164C554.589 27.8538 554.984 29.5247 554.729 31.6291C554.463 33.8178 553.67 35.4299 552.348 36.4654C551.111 37.5111 549.398 37.9012 547.209 37.6356ZM527.917 99.4868C527.664 99.4562 527.569 99.1883 527.63 98.6832C527.691 98.1782 527.848 97.9409 528.101 97.9716C530.963 98.3189 532.928 97.9594 533.997 96.8933C535.066 95.8271 535.81 93.5684 536.229 90.117L539.017 67.1361C539.365 64.274 539.32 62.1758 538.884 60.8417C538.458 59.4233 537.53 58.6273 536.099 58.4536C534.836 58.3004 533.133 58.6063 530.991 59.3713L530.864 59.356C530.527 59.3152 530.3 59.0741 530.183 58.6327C530.066 58.1914 530.144 57.9019 530.417 57.7642L549.626 51.5104L550.02 51.4301C550.357 51.471 550.668 51.7223 550.954 52.184C551.334 52.5718 551.508 52.892 551.478 53.1445L551.156 55.7962C550.559 59.3113 549.969 63.4679 549.387 68.2662L546.583 91.3734C546.164 94.8247 546.346 97.1958 547.129 98.4867C547.996 99.7878 549.861 100.612 552.723 100.959C552.976 100.99 553.071 101.258 553.01 101.763C552.949 102.268 552.792 102.505 552.539 102.474C550.435 102.219 548.756 101.973 547.504 101.735L540.195 100.72L532.857 99.9581C531.668 99.8993 530.021 99.7422 527.917 99.4868Z" fill="#E4002B"/>
<path d="M510.401 47.2409C514.125 47.4823 517.494 48.593 520.51 50.573C523.61 52.5585 525.976 55.3886 527.607 59.0633C529.323 62.7435 530.016 67.1222 529.687 72.1993C529.292 78.2919 527.643 83.4109 524.74 87.5564C521.921 91.7073 518.325 94.7457 513.952 96.6715C509.578 98.5972 505.022 99.4065 500.283 99.0992C493.683 98.6713 487.886 96.341 482.892 92.1083L471.782 96.359L471.528 96.3425C471.19 96.3206 470.989 96.1376 470.926 95.7937C470.858 95.5343 470.957 95.3283 471.221 95.1755C473.599 93.8851 475.356 92.342 476.493 90.5462C477.719 88.6713 478.436 86.1261 478.645 82.9106L482.669 20.8425C482.861 17.8809 482.702 15.7462 482.192 14.4385C481.688 13.0462 480.716 12.3034 479.278 12.2101C478.262 12.1443 476.579 12.545 474.229 13.4123L474.102 13.4041C473.763 13.3821 473.523 13.1541 473.381 12.72C473.239 12.286 473.259 11.9898 473.439 11.8315L491.625 4.59823L492.268 4.51245C492.606 4.5344 492.976 4.72833 493.377 5.09424C493.779 5.46015 493.971 5.77003 493.954 6.02388L490.753 55.3991C493.732 52.7031 496.799 50.6077 499.955 49.1128C503.111 47.618 506.593 46.994 510.401 47.2409ZM503.748 96.7747C507.894 97.0435 511.188 95.3876 513.63 91.807C516.071 88.2265 517.514 83.0091 517.959 76.155C518.442 68.7085 517.45 63.0358 514.983 59.137C512.607 55.1591 509.177 53.0247 504.692 52.7339C500.376 52.4541 495.68 54.1041 490.605 57.6838L489.346 77.1039C489.06 81.5041 489.631 85.1525 491.058 88.0492C492.569 90.9513 494.468 93.1139 496.755 94.5368C499.132 95.8806 501.463 96.6265 503.748 96.7747Z" fill="#E4002B"/>
<path d="M453.557 86.7985C453.811 86.7931 454.027 86.9581 454.204 87.2937C454.465 87.6274 454.471 87.8817 454.22 88.0566C451.146 91.0905 448.225 93.3154 445.456 94.7313C442.686 96.0625 439.732 96.7614 436.595 96.828C432.95 96.9055 429.837 96.1235 427.258 94.482C424.762 92.7539 423.47 89.8552 423.384 85.7859L422.773 57.0463C422.713 54.2486 422.207 52.3934 421.255 51.4807C420.387 50.5662 418.682 50.1359 416.139 50.19C416.054 50.1918 415.925 50.1097 415.752 49.9438C415.662 49.6912 415.614 49.4378 415.608 49.1835C415.603 48.9291 415.641 48.7163 415.722 48.5449C415.886 48.287 416.011 48.1571 416.095 48.1553C424.057 47.6468 428.986 44.107 430.882 37.5359C431.044 37.1932 431.38 37.0164 431.889 37.0056C432.482 36.993 432.782 37.1563 432.79 37.4954L433.003 47.5415C436.986 47.3721 442.615 46.8284 449.889 45.9104C450.059 45.9068 450.236 46.2423 450.42 46.9169C450.686 47.5049 450.828 48.1805 450.844 48.9435C450.86 49.7065 450.707 50.4731 450.384 51.2433C450.146 52.0117 449.857 52.3571 449.516 52.2795C444.745 51.2783 439.262 50.7163 433.068 50.5935L433.722 81.3678C433.792 84.6741 434.65 87.1155 436.295 88.6921C438.023 90.182 440.371 90.8955 443.338 90.8324C446.898 90.7567 450.221 89.4563 453.306 86.9311L453.557 86.7985Z" fill="#E4002B"/>
<path d="M421.993 88.3087C422.331 88.2837 422.558 88.4795 422.674 88.8961C422.784 89.2281 422.675 89.4911 422.35 89.6853L409.744 96.8674C409.418 97.0616 409.044 97.1743 408.621 97.2056C407.353 97.2994 406.073 96.6713 404.783 95.3213C403.571 93.8804 402.705 91.9463 402.186 89.5189L396.651 94.0098C394.728 95.5975 392.942 96.7499 391.295 97.467C389.732 98.1778 387.936 98.6083 385.906 98.7585C382.439 99.015 379.716 98.4087 377.736 96.9395C375.835 95.3796 374.785 93.2466 374.584 90.5405C374.416 88.2572 374.87 86.353 375.947 84.8278C377.11 83.2963 378.59 82.0389 380.387 81.0557C382.264 79.9816 385.012 78.6303 388.633 77.002L400.599 71.5252L400.036 63.9143C399.648 58.6713 398.817 54.9065 397.543 52.62C396.347 50.2426 394.607 49.1384 392.324 49.3073C389.533 49.5138 387.582 50.721 386.469 52.929C385.436 55.0461 384.886 57.3826 384.82 59.9383C384.631 64.2887 382.635 66.6047 378.829 66.8862C376.969 67.0238 375.542 66.7042 374.549 65.9274C373.641 65.1443 373.14 64.1185 373.046 62.85C372.871 60.4822 374.097 58.0957 376.725 55.6905C379.432 53.1945 382.722 51.123 386.597 49.4759C390.549 47.738 394.048 46.7564 397.092 46.5312C400.729 46.2622 403.688 47.1912 405.971 49.318C408.339 51.4386 409.692 54.7822 410.03 59.3488L411.719 82.1815C411.913 84.803 412.483 86.759 413.428 88.0495C414.374 89.34 415.65 89.9258 417.257 89.807C418.526 89.7131 420.02 89.22 421.739 88.3275L421.993 88.3087ZM401.782 87.5081L400.759 73.6817L393.383 77.4159C391.246 78.4242 389.503 79.5735 388.153 80.8638C386.882 82.0632 386.324 83.72 386.48 85.8342C386.631 87.8637 387.387 89.4659 388.749 90.6405C390.19 91.7243 391.84 92.1974 393.701 92.0598C395.223 91.9472 396.792 91.3209 398.408 90.181L401.782 87.5081Z" fill="#E4002B"/>
<path d="M352.623 92.8839C352.79 92.8567 352.985 92.9969 353.207 93.3045C353.512 93.5986 353.595 93.8429 353.454 94.0374C350.82 97.3862 348.063 99.9816 345.183 101.824C342.29 103.582 339.044 104.754 335.445 105.338C330.339 106.167 325.72 105.758 321.586 104.109C317.536 102.448 314.208 99.9385 311.601 96.5819C309.078 93.2117 307.47 89.3923 306.777 85.1236C305.975 80.1852 306.454 75.4683 308.215 70.9728C309.977 66.4773 312.76 62.718 316.564 59.6947C320.439 56.5742 324.97 54.5926 330.16 53.7498C335.182 52.9343 339.271 53.5158 342.427 55.4946C345.584 57.4733 347.549 60.8482 348.324 65.6191C348.718 68.0464 348.413 69.3416 347.409 69.5047L316.795 74.6052C316.833 75.3721 316.975 76.5088 317.22 78.0154C318.416 85.381 321.041 90.9682 325.096 94.7769C329.221 98.4883 334.422 99.8343 340.7 98.8148C343.043 98.4343 344.97 97.8637 346.478 97.1033C347.974 96.2591 349.945 94.9081 352.392 93.0502L352.623 92.8839ZM326.048 56.9948C322.951 57.4977 320.595 59.126 318.981 61.8795C317.436 64.5357 316.669 68.0107 316.679 72.3045L336.706 68.6656C335.125 59.988 331.572 56.0977 326.048 56.9948Z" fill="#E4002B"/>
<path d="M314.467 105.028C314.796 104.944 315.023 105.148 315.149 105.641C315.275 106.134 315.174 106.423 314.845 106.507C312.791 107.032 311.138 107.411 309.884 107.644L302.828 109.316L295.836 111.234C294.624 111.632 292.992 112.093 290.938 112.618C290.691 112.681 290.505 112.466 290.379 111.973C290.253 111.48 290.313 111.202 290.56 111.139C293.271 110.446 294.972 109.398 295.664 107.996C296.335 106.512 296.251 104.127 295.411 100.84L290.717 82.4786C289.541 77.8779 287.848 74.6784 285.638 72.8802C283.51 71.061 280.803 70.5714 277.517 71.4114C275.299 71.9784 273.217 73.0794 271.272 74.7144C269.327 76.3494 267.763 78.2806 266.582 80.508L273.229 106.51C274.09 109.879 275.119 112.022 276.317 112.941C277.597 113.84 279.633 113.932 282.426 113.218C282.673 113.155 282.859 113.37 282.985 113.863C283.111 114.356 283.051 114.634 282.804 114.697C280.751 115.222 279.097 115.6 277.844 115.833L270.665 117.537L263.672 119.456C262.46 119.853 260.828 120.314 258.774 120.839C258.527 120.902 258.341 120.687 258.215 120.194C258.089 119.701 258.15 119.423 258.396 119.36C261.189 118.646 262.891 117.599 263.5 116.217C264.192 114.815 264.108 112.43 263.247 109.062L258.553 90.6999C257.377 86.0992 255.684 82.8997 253.474 81.1015C251.346 79.2823 248.639 78.7927 245.353 79.6327C243.299 80.1577 241.33 81.1861 239.446 82.7179C237.562 84.2498 236.009 86.0472 234.785 88.1103L241.558 114.605C242.419 117.974 243.448 120.118 244.646 121.037C245.844 121.956 247.839 122.059 250.632 121.345C250.879 121.282 251.065 121.497 251.191 121.989C251.317 122.482 251.257 122.76 251.01 122.823C248.956 123.348 247.344 123.717 246.173 123.929L238.994 125.632L231.878 127.583C230.748 127.959 229.157 128.409 227.103 128.934C226.857 128.997 226.67 128.782 226.544 128.289C226.418 127.796 226.479 127.518 226.725 127.455C229.518 126.741 231.22 125.694 231.83 124.313C232.439 122.932 232.314 120.557 231.453 117.188L225.436 93.6509C224.764 91.0219 223.942 89.1752 222.97 88.1109C222.08 87.0256 220.937 86.6614 219.54 87.0184C218.308 87.3334 216.411 88.4745 213.851 90.4419L213.728 90.4734C213.399 90.5574 213.1 90.415 212.831 90.0462C212.561 89.6774 212.539 89.4204 212.765 89.2753L226.892 77.262C227.343 76.9717 227.61 76.816 227.692 76.795C228.514 76.585 229.577 77.3198 230.881 78.9994C232.247 80.5758 233.349 82.8323 234.187 85.7689C237.969 77.6252 243.106 72.7239 249.596 71.0649C253.375 70.0989 256.656 70.2668 259.44 71.5683C262.202 72.7878 264.322 75.0903 265.8 78.476C269.785 69.7554 275.105 64.5446 281.76 62.8436C286.114 61.7307 289.767 62.1536 292.718 64.1124C295.731 65.9681 297.888 69.4427 299.19 74.5364L305.269 98.3204C306.13 101.689 307.16 103.833 308.357 104.752C309.637 105.65 311.674 105.742 314.467 105.028Z" fill="#E4002B"/>
<path d="M207.497 126.395C207.735 126.305 207.994 126.388 208.272 126.645C208.63 126.873 208.72 127.111 208.542 127.359C206.658 131.245 204.648 134.318 202.511 136.577C200.344 138.757 197.793 140.403 194.859 141.513C191.449 142.804 188.254 143.106 185.274 142.42C182.344 141.625 180.159 139.324 178.718 135.517L168.544 108.632C167.554 106.015 166.457 104.435 165.255 103.893C164.132 103.32 162.38 103.484 160.001 104.385C159.922 104.415 159.773 104.38 159.554 104.282C159.385 104.074 159.255 103.851 159.165 103.613C159.075 103.375 159.04 103.162 159.059 102.973C159.128 102.675 159.201 102.511 159.281 102.481C166.616 99.343 170.079 94.3604 169.672 87.5334C169.71 87.1561 169.968 86.8774 170.444 86.6974C170.999 86.4873 171.336 86.5409 171.456 86.8581L175.013 96.2561C178.71 94.7663 183.834 92.3739 190.385 89.0792C190.543 89.0191 190.822 89.2764 191.221 89.8508C191.669 90.3159 192.028 90.9054 192.298 91.6191C192.568 92.3329 192.679 93.1067 192.632 93.9405C192.664 94.7443 192.507 95.1666 192.16 95.2073C187.328 95.857 181.973 97.1583 176.093 99.1112L186.987 127.9C188.158 130.993 189.782 133.008 191.859 133.945C193.985 134.772 196.436 134.66 199.212 133.61C202.543 132.349 205.24 130.014 207.304 126.604L207.497 126.395Z" fill="#E4002B"/>
<path d="M173.788 139.075C173.943 139.007 174.167 139.094 174.458 139.337C174.827 139.545 174.968 139.761 174.881 139.985C173.166 143.885 171.144 147.087 168.816 149.59C166.454 152.015 163.603 153.96 160.264 155.424C155.527 157.502 150.951 158.259 146.537 157.695C142.201 157.097 138.351 155.498 134.989 152.899C131.704 150.265 129.193 146.968 127.456 143.008C125.446 138.426 124.733 133.739 125.316 128.946C125.899 124.153 127.655 119.818 130.584 115.941C133.557 111.952 137.451 108.901 142.265 106.789C146.924 104.746 151.029 104.288 154.58 105.416C158.13 106.544 160.876 109.321 162.817 113.747C163.805 115.999 163.833 117.33 162.901 117.739L134.531 130.321C134.759 131.054 135.18 132.12 135.794 133.517C138.791 140.351 142.728 145.106 147.606 147.781C152.527 150.345 157.899 150.35 163.723 147.795C165.898 146.842 167.62 145.808 168.891 144.695C170.128 143.505 171.7 141.704 173.606 139.294L173.788 139.075ZM139.094 110.958C136.22 112.219 134.346 114.383 133.47 117.453C132.637 120.411 132.762 123.967 133.844 128.122L152.328 119.598C148.63 111.59 144.219 108.71 139.094 110.958Z" fill="#E4002B"/>
<path d="M134.645 155.956C134.797 155.879 135.025 155.953 135.329 156.179C135.71 156.366 135.863 156.574 135.788 156.802C134.295 160.793 132.457 164.103 130.273 166.733C128.051 169.287 125.314 171.389 122.063 173.039C117.45 175.38 112.924 176.393 108.486 176.079C104.122 175.726 100.189 174.346 96.6856 171.94C93.2579 169.496 90.5655 166.345 88.6083 162.489C86.3441 158.027 85.3682 153.388 85.6806 148.57C85.993 143.752 87.5024 139.325 90.2086 135.288C92.9521 131.138 96.668 127.874 101.356 125.494C105.893 123.192 109.966 122.504 113.574 123.43C117.182 124.357 120.08 126.975 122.267 131.285C123.38 133.478 123.483 134.805 122.576 135.265L94.9579 149.424C95.2276 150.143 95.7079 151.183 96.3987 152.544C99.7758 159.198 103.974 163.724 108.995 166.121C114.052 168.404 119.416 168.106 125.088 165.228C127.205 164.154 128.867 163.025 130.073 161.842C131.241 160.584 132.709 158.698 134.476 156.184L134.645 155.956ZM98.4242 129.835C95.6264 131.255 93.8765 133.522 93.1747 136.636C92.51 139.636 92.8347 143.18 94.1486 147.267L112.124 137.717C107.981 129.93 103.415 127.302 98.4242 129.835Z" fill="#E4002B"/>
<path d="M101.836 179.235C102.124 179.057 102.403 179.184 102.67 179.616C102.938 180.049 102.928 180.354 102.639 180.533C100.837 181.649 99.3725 182.505 98.2463 183.102L92.0147 186.81L85.9169 190.734C84.88 191.476 83.4603 192.404 81.6577 193.52C81.4414 193.654 81.1994 193.505 80.9316 193.072C80.6638 192.639 80.6381 192.356 80.8544 192.222C83.2338 190.749 84.5436 189.241 84.7841 187.696C84.9798 186.078 84.1852 183.828 82.4 180.944L72.4253 164.829C69.926 160.791 67.3529 158.245 64.7058 157.191C62.1309 156.092 59.4014 156.436 56.5173 158.221C54.5706 159.426 52.9139 161.099 51.5473 163.242C50.1808 165.384 49.2674 167.695 48.8072 170.174L62.9324 192.994C64.7623 195.95 66.3861 197.687 67.8041 198.206C69.2941 198.68 71.2648 198.158 73.7163 196.641C73.9326 196.507 74.1747 196.656 74.4424 197.089C74.7102 197.521 74.7359 197.804 74.5196 197.938C72.7171 199.054 71.2527 199.911 70.1266 200.508L63.7868 204.283L57.689 208.207C56.6521 208.948 55.2324 209.877 53.4298 210.993C53.2135 211.126 52.9715 210.977 52.7037 210.544C52.4359 210.112 52.4102 209.829 52.6265 209.695C55.078 208.177 56.3878 206.668 56.5561 205.168C56.7966 203.623 56.0019 201.372 54.1721 198.416L44.1973 182.302C41.6981 178.264 39.125 175.718 36.4779 174.664C33.903 173.565 31.1735 173.908 28.2894 175.693C26.4869 176.809 24.916 178.38 23.5769 180.405C22.2378 182.431 21.2936 184.611 20.7441 186.946L35.1371 210.198C36.967 213.155 38.5908 214.892 40.0088 215.411C41.4267 215.929 43.3614 215.43 45.8129 213.912C46.0292 213.778 46.2712 213.928 46.539 214.36C46.8068 214.793 46.8325 215.076 46.6162 215.21C44.8136 216.326 43.3853 217.16 42.3313 217.713L35.9915 221.487L29.7855 225.478C28.8207 226.175 27.4371 227.081 25.6345 228.197C25.4182 228.331 25.1762 228.182 24.9084 227.749C24.6406 227.316 24.6149 227.033 24.8312 226.899C27.2827 225.382 28.5925 223.873 28.7608 222.373C28.9291 220.872 28.0984 218.644 26.2686 215.688L13.4822 195.031C12.0541 192.723 10.7169 191.208 9.47064 190.483C8.29648 189.714 7.09654 189.709 5.87081 190.467C4.78928 191.137 3.32145 192.793 1.46732 195.437L1.35917 195.504C1.07077 195.682 0.742882 195.636 0.375531 195.365C0.00817823 195.094 -0.0896604 194.855 0.0820166 194.649L9.96562 178.957C10.309 178.545 10.5167 178.317 10.5888 178.273C11.3098 177.826 12.5441 178.209 14.2916 179.421C16.0665 180.516 17.7934 182.34 19.4722 184.891C20.6434 175.988 24.077 169.774 29.7731 166.248C33.0898 164.195 36.2708 163.373 39.3161 163.782C42.3168 164.119 45.029 165.681 47.4528 168.469C48.6447 158.955 52.1607 152.391 58.001 148.776C61.8224 146.41 65.4343 145.721 68.8367 146.706C72.2665 147.575 75.3649 150.244 78.132 154.715L91.0522 175.588C92.882 178.544 94.5059 180.282 95.9238 180.8C97.4138 181.274 99.3846 180.752 101.836 179.235Z" fill="#E4002B"/>
<path d="M748.195 225.029C749.503 225.029 750.753 225.512 751.947 226.478C753.197 227.388 753.823 228.496 753.823 229.804C753.823 230.998 753.453 231.992 752.714 232.788C751.975 233.527 751.009 233.897 749.815 233.897C748.963 233.897 748.252 233.726 747.684 233.385C747.172 233.044 746.632 232.532 746.063 231.85C745.552 231.282 745.097 230.884 744.699 230.656C744.358 230.372 743.932 230.23 743.42 230.23C742.852 230.23 742.227 230.458 741.544 230.912C740.919 231.31 739.924 232.191 738.56 233.555V251.887C738.56 254.161 739.1 255.724 740.18 256.577C741.26 257.373 743.25 257.771 746.149 257.771C746.376 257.771 746.49 257.941 746.49 258.282C746.49 258.623 746.376 258.794 746.149 258.794C744.159 258.794 742.596 258.765 741.459 258.709L734.553 258.623L729.522 258.709C728.669 258.765 727.504 258.794 726.026 258.794C725.856 258.794 725.77 258.623 725.77 258.282C725.77 257.941 725.856 257.771 726.026 257.771C727.788 257.771 728.982 257.373 729.607 256.577C730.233 255.724 730.545 254.161 730.545 251.887V235.858C730.545 234.095 730.318 232.817 729.863 232.021C729.465 231.168 728.812 230.742 727.902 230.742C726.936 230.742 725.571 231.14 723.809 231.935H723.639C723.468 231.935 723.326 231.793 723.213 231.509C723.156 231.225 723.184 231.054 723.298 230.998L735.15 225.2C735.491 225.086 735.69 225.029 735.746 225.029C736.372 225.029 736.94 225.626 737.452 226.82C738.02 227.956 738.361 229.52 738.475 231.509C740.805 229.122 742.71 227.445 744.188 226.478C745.722 225.512 747.058 225.029 748.195 225.029Z" fill="#E4002B"/>
<path d="M722.538 254.19C722.765 254.19 722.907 254.332 722.964 254.616C723.078 254.843 723.021 255.014 722.794 255.128L714.011 259.306C713.784 259.419 713.5 259.476 713.159 259.476C712.249 259.476 711.368 258.993 710.516 258.027C709.72 257.06 709.151 255.753 708.81 254.104L705.144 256.662C703.836 257.629 702.614 258.339 701.477 258.794C700.341 259.192 699.062 259.391 697.641 259.391C695.196 259.391 693.349 258.851 692.098 257.771C690.848 256.691 690.222 255.184 690.222 253.252C690.222 251.717 690.592 250.495 691.331 249.585C692.07 248.619 692.979 247.88 694.059 247.368C695.196 246.8 696.759 246.175 698.749 245.493L700.881 244.725L708.554 241.911V237.051C708.554 233.413 708.242 230.77 707.617 229.122C707.048 227.473 706.053 226.649 704.632 226.649C701.62 226.649 699.914 228.98 699.516 233.641C699.346 235.346 698.834 236.568 697.982 237.307C697.186 238.046 696.049 238.416 694.571 238.416C693.15 238.416 692.098 238.131 691.416 237.563C690.791 236.938 690.478 236.142 690.478 235.176C690.478 233.47 691.473 231.85 693.463 230.315C695.452 228.724 697.839 227.445 700.625 226.478C703.467 225.512 705.968 225.029 708.128 225.029C710.629 225.029 712.647 225.825 714.182 227.416C715.774 228.951 716.569 231.31 716.569 234.493V249.585C716.569 251.234 716.854 252.513 717.422 253.422C718.047 254.332 718.9 254.786 719.98 254.786C720.776 254.786 721.6 254.588 722.453 254.19H722.538ZM708.64 252.655C708.583 252.427 708.554 252.058 708.554 251.546V243.361L704.888 245.066C704.718 245.123 704.149 245.35 703.183 245.748C702.216 246.089 701.364 246.686 700.625 247.539C699.943 248.392 699.602 249.386 699.602 250.523C699.602 251.887 700.028 252.967 700.881 253.763C701.79 254.502 702.813 254.872 703.95 254.872C704.86 254.872 705.798 254.559 706.764 253.934L708.64 252.655Z" fill="#E4002B"/>
<path d="M684.424 253.166C684.537 253.166 684.651 253.28 684.765 253.507C684.935 253.735 684.964 253.905 684.85 254.019C682.747 256.065 680.615 257.543 678.455 258.453C676.295 259.362 673.936 259.817 671.378 259.817C667.797 259.817 664.699 259.078 662.084 257.6C659.47 256.065 657.48 254.048 656.116 251.546C654.752 248.988 654.069 246.232 654.069 243.276C654.069 239.979 654.894 236.938 656.542 234.152C658.191 231.367 660.464 229.179 663.363 227.587C666.319 225.938 669.645 225.114 673.339 225.114C676.864 225.114 679.592 225.91 681.525 227.502C683.457 229.093 684.424 231.566 684.424 234.92C684.424 236.682 684.111 237.563 683.486 237.563L662.766 237.648C662.71 238.046 662.681 238.7 662.681 239.609C662.681 244.612 663.818 248.534 666.092 251.376C668.422 254.218 671.748 255.639 676.068 255.639C677.603 255.639 678.91 255.469 679.99 255.128C681.07 254.786 682.491 254.161 684.253 253.252L684.424 253.166ZM670.099 226.82C668.223 226.82 666.66 227.644 665.41 229.292C664.159 230.884 663.335 233.101 662.937 235.943L675.3 235.772C675.244 232.873 674.817 230.656 674.021 229.122C673.226 227.587 671.918 226.82 670.099 226.82Z" fill="#E4002B"/>
<path d="M629.88 259.902C627.095 259.902 624.651 259.59 622.547 258.964V275.335C622.547 277.041 622.718 278.291 623.059 279.087C623.457 279.883 624.167 280.423 625.191 280.707C626.271 281.048 627.919 281.219 630.136 281.219C630.307 281.219 630.392 281.389 630.392 281.73C630.392 282.071 630.307 282.242 630.136 282.242C628.033 282.242 626.384 282.213 625.191 282.157L618.455 282.071L613.424 282.157C612.571 282.213 611.378 282.242 609.843 282.242C609.672 282.242 609.587 282.071 609.587 281.73C609.587 281.389 609.672 281.219 609.843 281.219C611.207 281.219 612.202 281.048 612.827 280.707C613.509 280.423 613.964 279.883 614.191 279.087C614.476 278.291 614.618 277.041 614.618 275.335V235.858C614.618 234.039 614.419 232.731 614.021 231.935C613.623 231.14 612.913 230.742 611.889 230.742C610.98 230.742 609.672 231.14 607.967 231.935H607.797C607.626 231.935 607.484 231.793 607.37 231.509C607.2 231.225 607.171 231.054 607.285 230.998L619.393 225.114C619.506 225.057 619.648 225.029 619.819 225.029C620.387 225.029 620.899 225.512 621.354 226.478C621.865 227.445 622.206 228.752 622.377 230.401C626.526 226.649 630.79 224.773 635.167 224.773C637.554 224.773 639.771 225.398 641.817 226.649C643.92 227.9 645.597 229.719 646.848 232.106C648.098 234.493 648.724 237.279 648.724 240.462C648.724 245.009 647.786 248.761 645.91 251.717C644.034 254.616 641.647 256.719 638.748 258.027C635.906 259.277 632.95 259.902 629.88 259.902ZM629.539 229.548C626.981 229.548 624.651 230.458 622.547 232.277V253.507C623.798 254.929 625.105 256.009 626.47 256.748C627.834 257.43 629.511 257.771 631.5 257.771C637.241 257.771 640.112 252.882 640.112 243.105C640.112 238.785 639.089 235.46 637.042 233.129C635.053 230.742 632.552 229.548 629.539 229.548Z" fill="#E4002B"/>
<path d="M586.165 259.902C583.38 259.902 580.936 259.59 578.833 258.964V275.335C578.833 277.041 579.003 278.291 579.344 279.087C579.742 279.883 580.453 280.423 581.476 280.707C582.556 281.048 584.204 281.219 586.421 281.219C586.592 281.219 586.677 281.389 586.677 281.73C586.677 282.071 586.592 282.242 586.421 282.242C584.318 282.242 582.669 282.213 581.476 282.157L574.74 282.071L569.709 282.157C568.857 282.213 567.663 282.242 566.128 282.242C565.958 282.242 565.872 282.071 565.872 281.73C565.872 281.389 565.958 281.219 566.128 281.219C567.492 281.219 568.487 281.048 569.112 280.707C569.794 280.423 570.249 279.883 570.477 279.087C570.761 278.291 570.903 277.041 570.903 275.335V235.858C570.903 234.039 570.704 232.731 570.306 231.935C569.908 231.14 569.198 230.742 568.174 230.742C567.265 230.742 565.958 231.14 564.252 231.935H564.082C563.911 231.935 563.769 231.793 563.655 231.509C563.485 231.225 563.456 231.054 563.57 230.998L575.678 225.114C575.791 225.057 575.934 225.029 576.104 225.029C576.672 225.029 577.184 225.512 577.639 226.478C578.15 227.445 578.491 228.752 578.662 230.401C582.812 226.649 587.075 224.773 591.452 224.773C593.839 224.773 596.056 225.398 598.102 226.649C600.206 227.9 601.883 229.719 603.133 232.106C604.384 234.493 605.009 237.279 605.009 240.462C605.009 245.009 604.071 248.761 602.195 251.717C600.319 254.616 597.932 256.719 595.033 258.027C592.191 259.277 589.235 259.902 586.165 259.902ZM585.824 229.548C583.266 229.548 580.936 230.458 578.833 232.277V253.507C580.083 254.929 581.39 256.009 582.755 256.748C584.119 257.43 585.796 257.771 587.785 257.771C593.527 257.771 596.397 252.882 596.397 243.105C596.397 238.785 595.374 235.46 593.328 233.129C591.338 230.742 588.837 229.548 585.824 229.548Z" fill="#E4002B"/>
<path d="M563.75 254.19C563.977 254.19 564.119 254.332 564.176 254.616C564.29 254.843 564.233 255.014 564.006 255.128L555.223 259.306C554.996 259.419 554.712 259.476 554.371 259.476C553.461 259.476 552.58 258.993 551.727 258.027C550.932 257.06 550.363 255.753 550.022 254.104L546.356 256.662C545.048 257.629 543.826 258.339 542.689 258.794C541.553 259.192 540.274 259.391 538.852 259.391C536.408 259.391 534.561 258.851 533.31 257.771C532.06 256.691 531.434 255.184 531.434 253.252C531.434 251.717 531.804 250.495 532.543 249.585C533.282 248.619 534.191 247.88 535.271 247.368C536.408 246.8 537.971 246.175 539.961 245.493L542.092 244.725L549.766 241.911V237.051C549.766 233.413 549.454 230.77 548.828 229.122C548.26 227.473 547.265 226.649 545.844 226.649C542.832 226.649 541.126 228.98 540.728 233.641C540.558 235.346 540.046 236.568 539.194 237.307C538.398 238.046 537.261 238.416 535.783 238.416C534.362 238.416 533.31 238.131 532.628 237.563C532.003 236.938 531.69 236.142 531.69 235.176C531.69 233.47 532.685 231.85 534.674 230.315C536.664 228.724 539.051 227.445 541.837 226.478C544.679 225.512 547.18 225.029 549.34 225.029C551.841 225.029 553.859 225.825 555.394 227.416C556.985 228.951 557.781 231.31 557.781 234.493V249.585C557.781 251.234 558.066 252.513 558.634 253.422C559.259 254.332 560.112 254.786 561.192 254.786C561.988 254.786 562.812 254.588 563.665 254.19H563.75ZM549.852 252.655C549.795 252.427 549.766 252.058 549.766 251.546V243.361L546.1 245.066C545.929 245.123 545.361 245.35 544.395 245.748C543.428 246.089 542.576 246.686 541.837 247.539C541.155 248.392 540.814 249.386 540.814 250.523C540.814 251.887 541.24 252.967 542.092 253.763C543.002 254.502 544.025 254.872 545.162 254.872C546.072 254.872 547.009 254.559 547.976 253.934L549.852 252.655Z" fill="#E4002B"/>
<path d="M509.358 229.974C509.358 231.623 509.926 233.044 511.063 234.238C512.257 235.431 513.962 236.682 516.179 237.989C518.339 239.24 519.93 240.235 520.954 240.974C522.034 241.656 523 242.65 523.853 243.958C524.705 245.208 525.132 246.743 525.132 248.562C525.132 250.495 524.648 252.314 523.682 254.019C522.716 255.724 521.266 257.117 519.334 258.197C517.401 259.22 515.099 259.732 512.427 259.732C509.301 259.732 506.345 258.964 503.56 257.43C503.219 257.089 503.048 256.748 503.048 256.406L502.877 247.965C502.877 247.795 503.02 247.709 503.304 247.709C503.645 247.653 503.844 247.681 503.901 247.795C504.81 250.637 506.316 253.053 508.42 255.042C510.523 257.032 512.655 258.027 514.815 258.027C516.008 258.027 516.946 257.657 517.628 256.918C518.367 256.179 518.737 255.099 518.737 253.678C518.737 251.575 518.14 249.926 516.946 248.733C515.752 247.482 513.99 246.203 511.66 244.896C509.67 243.816 508.164 242.935 507.141 242.253C506.117 241.57 505.208 240.604 504.412 239.354C503.616 238.103 503.219 236.568 503.219 234.749C503.219 231.395 504.412 228.951 506.8 227.416C509.187 225.825 512.114 225.029 515.582 225.029C516.889 225.029 518.055 225.114 519.078 225.285C520.158 225.455 521.352 225.796 522.659 226.308C523.171 226.478 523.426 226.791 523.426 227.246C523.426 228.667 523.398 229.775 523.341 230.571L523.256 234.834C523.256 235.005 523.085 235.09 522.744 235.09C522.403 235.09 522.233 235.005 522.233 234.834C522.233 233.754 521.778 232.589 520.868 231.339C519.959 230.031 518.765 228.923 517.287 228.013C515.866 227.104 514.388 226.649 512.853 226.649C510.523 226.649 509.358 227.757 509.358 229.974Z" fill="#E4002B"/>
<path d="M488.409 216.587C486.76 216.587 485.481 216.133 484.572 215.223C483.662 214.314 483.208 213.035 483.208 211.386C483.208 209.908 483.662 208.743 484.572 207.89C485.538 206.981 486.817 206.526 488.409 206.526C490 206.526 491.223 206.952 492.075 207.805C492.928 208.658 493.354 209.852 493.354 211.386C493.354 213.035 492.928 214.314 492.075 215.223C491.223 216.133 490 216.587 488.409 216.587ZM480.223 258.794C480.053 258.794 479.968 258.623 479.968 258.282C479.968 257.941 480.053 257.77 480.223 257.77C481.985 257.77 483.179 257.373 483.804 256.577C484.43 255.724 484.742 254.161 484.742 251.887V236.625C484.742 234.692 484.543 233.299 484.146 232.447C483.748 231.594 483.094 231.168 482.184 231.168C481.445 231.168 480.394 231.48 479.03 232.106H478.944C478.717 232.106 478.546 231.964 478.433 231.679C478.319 231.338 478.348 231.139 478.518 231.082L491.393 225.114L491.649 225.029C491.933 225.029 492.217 225.171 492.501 225.455C492.786 225.739 492.928 225.995 492.928 226.222V228.098C492.814 230.372 492.757 233.157 492.757 236.454V251.887C492.757 254.161 493.07 255.724 493.695 256.577C494.377 257.373 495.599 257.77 497.362 257.77C497.532 257.77 497.617 257.941 497.617 258.282C497.617 258.623 497.532 258.794 497.362 258.794C495.884 258.794 494.718 258.765 493.866 258.708L488.75 258.623L483.719 258.708C482.867 258.765 481.701 258.794 480.223 258.794Z" fill="#E4002B"/>
<path d="M476.32 253.251C476.49 253.251 476.633 253.393 476.746 253.678C476.917 253.962 476.945 254.132 476.831 254.189L465.065 259.902L464.639 259.987C464.127 259.987 463.644 259.447 463.189 258.367C462.791 257.287 462.535 255.809 462.422 253.933C458.215 257.912 453.924 259.902 449.547 259.902C447.046 259.902 444.772 259.248 442.725 257.941C440.736 256.633 439.144 254.729 437.951 252.228C436.757 249.67 436.16 246.686 436.16 243.275C436.16 238.955 437.155 235.431 439.144 232.702C441.191 229.917 443.692 227.899 446.648 226.649C449.66 225.398 452.673 224.773 455.686 224.773C457.789 224.773 460.006 225.114 462.336 225.796V208.572C462.336 206.583 462.137 205.162 461.74 204.309C461.398 203.456 460.773 203.03 459.864 203.03C459.125 203.03 458.073 203.343 456.709 203.968H456.624C456.396 203.968 456.197 203.826 456.027 203.542C455.913 203.201 455.913 203.002 456.027 202.945L468.561 197.062L468.902 196.976C469.186 196.976 469.499 197.118 469.84 197.403C470.181 197.63 470.351 197.857 470.351 198.085V248.903C470.351 250.835 470.522 252.2 470.863 252.995C471.261 253.791 471.886 254.189 472.739 254.189C473.478 254.189 474.643 253.876 476.235 253.251H476.32ZM454.236 255.809C457.078 255.809 459.778 254.615 462.336 252.228V231.082C461.313 229.661 460.148 228.638 458.841 228.013C457.59 227.331 456.112 226.99 454.407 226.99C451.337 226.99 448.978 228.07 447.33 230.23C445.738 232.333 444.942 235.772 444.942 240.547C444.942 245.322 445.795 249.073 447.5 251.802C449.206 254.473 451.451 255.809 454.236 255.809Z" fill="#E4002B"/>
<path d="M413.941 257.77C414.112 257.77 414.197 257.941 414.197 258.282C414.197 258.623 414.112 258.793 413.941 258.793C412.463 258.793 411.298 258.765 410.445 258.708L405.33 258.623L398.764 258.708C397.798 258.765 396.49 258.793 394.842 258.793C394.671 258.793 394.586 258.623 394.586 258.282C394.586 257.941 394.671 257.77 394.842 257.77C396.888 257.77 397.912 257.173 397.912 255.98C397.912 255.354 397.684 254.786 397.229 254.274L387.509 241.826L385.889 243.275V251.887C385.889 254.161 386.202 255.724 386.827 256.577C387.509 257.372 388.731 257.77 390.493 257.77C390.721 257.77 390.835 257.941 390.835 258.282C390.835 258.623 390.721 258.793 390.493 258.793C389.016 258.793 387.822 258.765 386.912 258.708L381.967 258.623L376.851 258.708C375.998 258.765 374.833 258.793 373.355 258.793C373.242 258.793 373.185 258.623 373.185 258.282C373.185 257.941 373.242 257.77 373.355 257.77C375.117 257.77 376.311 257.372 376.936 256.577C377.618 255.724 377.96 254.161 377.96 251.887V208.572C377.96 206.583 377.761 205.162 377.363 204.309C377.022 203.456 376.396 203.03 375.487 203.03C374.691 203.03 373.611 203.343 372.247 203.968H372.161C371.991 203.968 371.82 203.826 371.65 203.542C371.536 203.201 371.536 203.002 371.65 202.945L384.099 197.062L384.525 196.976C384.809 196.976 385.093 197.118 385.378 197.403C385.719 197.63 385.889 197.857 385.889 198.085V241.314L393.819 233.64C395.297 232.276 396.036 230.883 396.036 229.462C396.036 228.723 395.751 228.126 395.183 227.672C394.615 227.16 393.819 226.904 392.796 226.904C392.682 226.904 392.625 226.734 392.625 226.393C392.625 226.052 392.682 225.881 392.796 225.881C394.444 225.881 395.723 225.91 396.633 225.966L403.368 226.052L409.593 225.966C410.389 225.91 411.497 225.881 412.918 225.881C413.089 225.881 413.174 226.052 413.174 226.393C413.174 226.734 413.089 226.904 412.918 226.904C410.474 226.904 407.66 227.53 404.477 228.78C401.351 229.974 398.537 231.736 396.036 234.067L392.966 236.88L404.647 251.887C406.296 253.933 407.859 255.44 409.337 256.406C410.872 257.315 412.407 257.77 413.941 257.77Z" fill="#E4002B"/>
<path d="M370.084 257.771C370.255 257.771 370.34 257.941 370.34 258.282C370.34 258.623 370.255 258.794 370.084 258.794C368.606 258.794 367.441 258.765 366.588 258.709L361.473 258.623L356.527 258.709C355.618 258.765 354.424 258.794 352.946 258.794C352.775 258.794 352.69 258.623 352.69 258.282C352.69 257.941 352.775 257.771 352.946 257.771C354.708 257.771 355.902 257.373 356.527 256.577C357.152 255.724 357.465 254.161 357.465 251.887V239.609C357.465 236.54 356.897 234.266 355.76 232.788C354.68 231.31 352.946 230.571 350.559 230.571C349.194 230.571 347.773 230.855 346.295 231.424C344.874 231.992 343.624 232.76 342.544 233.726V251.887C342.544 254.161 342.856 255.724 343.482 256.577C344.164 257.373 345.386 257.771 347.148 257.771C347.319 257.771 347.404 257.941 347.404 258.282C347.404 258.623 347.319 258.794 347.148 258.794C345.67 258.794 344.505 258.765 343.652 258.709L338.536 258.623L333.506 258.709C332.653 258.765 331.488 258.794 330.01 258.794C329.839 258.794 329.754 258.623 329.754 258.282C329.754 257.941 329.839 257.771 330.01 257.771C331.772 257.771 332.966 257.373 333.591 256.577C334.216 255.724 334.529 254.161 334.529 251.887V235.858C334.529 234.095 334.301 232.817 333.847 232.021C333.449 231.168 332.795 230.742 331.886 230.742C330.919 230.742 329.555 231.14 327.793 231.935H327.622C327.452 231.935 327.31 231.793 327.196 231.509C327.139 231.225 327.168 231.054 327.281 230.998L339.133 225.2C339.474 225.086 339.673 225.029 339.73 225.029C340.355 225.029 340.952 225.654 341.521 226.905C342.089 228.099 342.43 229.747 342.544 231.85C346.466 227.189 350.786 224.858 355.504 224.858C358.574 224.858 360.989 225.853 362.752 227.843C364.57 229.775 365.48 232.333 365.48 235.517V251.887C365.48 254.161 365.793 255.724 366.418 256.577C367.1 257.373 368.322 257.771 370.084 257.771Z" fill="#E4002B"/>
<path d="M315.798 216.587C314.149 216.587 312.87 216.133 311.961 215.223C311.051 214.314 310.597 213.035 310.597 211.386C310.597 209.908 311.051 208.743 311.961 207.89C312.927 206.981 314.206 206.526 315.798 206.526C317.389 206.526 318.611 206.952 319.464 207.805C320.317 208.658 320.743 209.852 320.743 211.386C320.743 213.035 320.317 214.314 319.464 215.223C318.611 216.133 317.389 216.587 315.798 216.587ZM307.612 258.794C307.442 258.794 307.357 258.623 307.357 258.282C307.357 257.941 307.442 257.77 307.612 257.77C309.374 257.77 310.568 257.373 311.193 256.577C311.819 255.724 312.131 254.161 312.131 251.887V236.625C312.131 234.692 311.932 233.299 311.535 232.447C311.137 231.594 310.483 231.168 309.573 231.168C308.834 231.168 307.783 231.48 306.419 232.106H306.333C306.106 232.106 305.935 231.964 305.822 231.679C305.708 231.338 305.736 231.139 305.907 231.082L318.782 225.114L319.038 225.029C319.322 225.029 319.606 225.171 319.89 225.455C320.175 225.739 320.317 225.995 320.317 226.222V228.098C320.203 230.372 320.146 233.157 320.146 236.454V251.887C320.146 254.161 320.459 255.724 321.084 256.577C321.766 257.373 322.988 257.77 324.751 257.77C324.921 257.77 325.006 257.941 325.006 258.282C325.006 258.623 324.921 258.794 324.751 258.794C323.273 258.794 322.107 258.765 321.255 258.708L316.139 258.623L311.108 258.708C310.256 258.765 309.09 258.794 307.612 258.794Z" fill="#E4002B"/>
<path d="M297.472 225.029C298.779 225.029 300.03 225.512 301.223 226.478C302.474 227.388 303.099 228.496 303.099 229.804C303.099 230.998 302.73 231.992 301.991 232.788C301.252 233.527 300.285 233.897 299.092 233.897C298.239 233.897 297.529 233.726 296.96 233.385C296.449 233.044 295.909 232.532 295.34 231.85C294.828 231.282 294.374 230.884 293.976 230.656C293.635 230.372 293.208 230.23 292.697 230.23C292.128 230.23 291.503 230.458 290.821 230.912C290.196 231.31 289.201 232.191 287.837 233.555V251.887C287.837 254.161 288.377 255.724 289.457 256.577C290.537 257.373 292.526 257.771 295.425 257.771C295.653 257.771 295.766 257.941 295.766 258.282C295.766 258.623 295.653 258.794 295.425 258.794C293.436 258.794 291.873 258.765 290.736 258.709L283.829 258.623L278.799 258.709C277.946 258.765 276.781 258.794 275.303 258.794C275.132 258.794 275.047 258.623 275.047 258.282C275.047 257.941 275.132 257.771 275.303 257.771C277.065 257.771 278.259 257.373 278.884 256.577C279.509 255.724 279.822 254.161 279.822 251.887V235.858C279.822 234.095 279.594 232.817 279.14 232.021C278.742 231.168 278.088 230.742 277.179 230.742C276.212 230.742 274.848 231.14 273.086 231.935H272.915C272.745 231.935 272.603 231.793 272.489 231.509C272.432 231.225 272.461 231.054 272.574 230.998L284.426 225.2C284.767 225.086 284.966 225.029 285.023 225.029C285.648 225.029 286.217 225.626 286.728 226.82C287.297 227.956 287.638 229.52 287.751 231.509C290.082 229.122 291.986 227.445 293.464 226.478C294.999 225.512 296.335 225.029 297.472 225.029Z" fill="#E4002B"/>
<path d="M271.403 253.251C271.573 253.251 271.715 253.393 271.829 253.678C271.999 253.962 272.028 254.132 271.914 254.189L260.148 259.902L259.721 259.987C259.21 259.987 258.727 259.447 258.272 258.367C257.874 257.287 257.618 255.809 257.504 253.933C253.298 257.912 249.006 259.902 244.629 259.902C242.128 259.902 239.855 259.248 237.808 257.941C235.819 256.633 234.227 254.729 233.033 252.228C231.84 249.67 231.243 246.686 231.243 243.275C231.243 238.955 232.238 235.431 234.227 232.702C236.273 229.917 238.775 227.899 241.73 226.649C244.743 225.398 247.756 224.773 250.769 224.773C252.872 224.773 255.089 225.114 257.419 225.796V208.572C257.419 206.583 257.22 205.162 256.822 204.309C256.481 203.456 255.856 203.03 254.946 203.03C254.208 203.03 253.156 203.343 251.792 203.968H251.706C251.479 203.968 251.28 203.826 251.11 203.542C250.996 203.201 250.996 203.002 251.11 202.945L263.644 197.062L263.985 196.976C264.269 196.976 264.581 197.118 264.922 197.403C265.264 197.63 265.434 197.857 265.434 198.085V248.903C265.434 250.835 265.605 252.2 265.946 252.995C266.344 253.791 266.969 254.189 267.822 254.189C268.56 254.189 269.726 253.876 271.317 253.251H271.403ZM249.319 255.809C252.161 255.809 254.861 254.615 257.419 252.228V231.082C256.396 229.661 255.231 228.638 253.923 228.013C252.673 227.331 251.195 226.99 249.49 226.99C246.42 226.99 244.061 228.07 242.413 230.23C240.821 232.333 240.025 235.772 240.025 240.547C240.025 245.322 240.878 249.073 242.583 251.802C244.288 254.473 246.534 255.809 249.319 255.809Z" fill="#E4002B"/>
<path d="M207.512 252.825C207.739 252.825 207.909 252.939 208.023 253.166C208.194 253.394 208.194 253.564 208.023 253.678C205.92 255.781 203.874 257.344 201.884 258.367C199.895 259.334 197.791 259.817 195.574 259.817C193.073 259.817 190.942 259.22 189.18 258.026C187.417 256.833 186.536 254.815 186.536 251.973V233.044C186.536 231.282 186.224 230.06 185.598 229.377C184.973 228.695 183.836 228.354 182.188 228.354C182.131 228.354 182.046 228.269 181.932 228.098C181.875 227.928 181.847 227.757 181.847 227.587C181.847 227.359 181.875 227.189 181.932 227.075C181.989 226.905 182.074 226.819 182.188 226.819C185.087 226.706 187.417 226.08 189.18 224.944C190.999 223.807 192.391 222.073 193.358 219.742C193.471 219.515 193.699 219.401 194.04 219.401C194.438 219.401 194.636 219.515 194.636 219.742V226.564C197.933 226.507 201.628 226.251 205.721 225.796C205.835 225.796 205.948 226.024 206.062 226.478C206.233 226.876 206.318 227.331 206.318 227.843C206.318 228.411 206.204 228.98 205.977 229.548C205.806 230.06 205.607 230.287 205.38 230.23C201.685 229.434 198.104 229.008 194.636 228.951V249.159C194.636 251.319 195.177 252.911 196.257 253.934C197.393 254.957 198.871 255.468 200.69 255.468C202.964 255.468 205.181 254.616 207.341 252.911L207.512 252.825Z" fill="#E4002B"/>
<path d="M179.724 254.19C179.952 254.19 180.094 254.332 180.151 254.616C180.264 254.843 180.207 255.014 179.98 255.128L171.198 259.306C170.97 259.419 170.686 259.476 170.345 259.476C169.436 259.476 168.555 258.993 167.702 258.027C166.906 257.06 166.338 255.753 165.997 254.104L162.33 256.662C161.023 257.629 159.801 258.339 158.664 258.794C157.527 259.192 156.248 259.391 154.827 259.391C152.383 259.391 150.535 258.851 149.285 257.771C148.034 256.691 147.409 255.184 147.409 253.252C147.409 251.717 147.778 250.495 148.517 249.585C149.256 248.619 150.166 247.88 151.246 247.368C152.383 246.8 153.946 246.175 155.935 245.493L158.067 244.725L165.741 241.911V237.051C165.741 233.413 165.428 230.77 164.803 229.122C164.234 227.473 163.24 226.649 161.819 226.649C158.806 226.649 157.101 228.98 156.703 233.641C156.532 235.346 156.021 236.568 155.168 237.307C154.372 238.046 153.235 238.416 151.757 238.416C150.336 238.416 149.285 238.131 148.603 237.563C147.977 236.938 147.665 236.142 147.665 235.176C147.665 233.47 148.659 231.85 150.649 230.315C152.638 228.724 155.026 227.445 157.811 226.478C160.653 225.512 163.154 225.029 165.314 225.029C167.816 225.029 169.834 225.825 171.368 227.416C172.96 228.951 173.756 231.31 173.756 234.493V249.585C173.756 251.234 174.04 252.513 174.608 253.422C175.234 254.332 176.086 254.786 177.166 254.786C177.962 254.786 178.786 254.588 179.639 254.19H179.724ZM165.826 252.655C165.769 252.427 165.741 252.058 165.741 251.546V243.361L162.074 245.066C161.904 245.123 161.335 245.35 160.369 245.748C159.403 246.089 158.55 246.686 157.811 247.539C157.129 248.392 156.788 249.386 156.788 250.523C156.788 251.887 157.214 252.967 158.067 253.763C158.976 254.502 160 254.872 161.137 254.872C162.046 254.872 162.984 254.559 163.95 253.934L165.826 252.655Z" fill="#E4002B"/>
<path d="M141.61 253.166C141.724 253.166 141.838 253.28 141.951 253.507C142.122 253.735 142.15 253.905 142.037 254.019C139.933 256.065 137.802 257.543 135.642 258.453C133.482 259.362 131.123 259.817 128.565 259.817C124.984 259.817 121.886 259.078 119.271 257.6C116.656 256.065 114.666 254.048 113.302 251.546C111.938 248.988 111.256 246.232 111.256 243.276C111.256 239.979 112.08 236.938 113.729 234.152C115.377 231.367 117.651 229.179 120.55 227.587C123.506 225.938 126.831 225.114 130.526 225.114C134.05 225.114 136.779 225.91 138.711 227.502C140.644 229.093 141.61 231.566 141.61 234.92C141.61 236.682 141.298 237.563 140.672 237.563L119.953 237.648C119.896 238.046 119.868 238.7 119.868 239.609C119.868 244.612 121.004 248.534 123.278 251.376C125.609 254.218 128.934 255.639 133.254 255.639C134.789 255.639 136.096 255.469 137.176 255.128C138.256 254.786 139.678 254.161 141.44 253.252L141.61 253.166ZM127.286 226.82C125.41 226.82 123.847 227.644 122.596 229.292C121.346 230.884 120.521 233.101 120.123 235.943L132.487 235.772C132.43 232.873 132.004 230.656 131.208 229.122C130.412 227.587 129.105 226.82 127.286 226.82Z" fill="#E4002B"/>
</svg>
