<svg width="329" height="73" viewBox="0 0 329 73" fill="none" xmlns="http://www.w3.org/2000/svg">
<path d="M30.5481 32.1253C33.4387 32.1253 36.0994 32.8151 38.5301 34.1947C41.0266 35.5743 42.9974 37.6437 44.4427 40.4029C45.9537 43.1622 46.7092 46.5127 46.7092 50.4544C46.7092 55.1845 45.691 59.2248 43.6544 62.5753C41.6835 65.9258 39.0557 68.4551 35.7709 70.1631C32.4861 71.8712 29.0042 72.7253 25.3253 72.7253C20.201 72.7253 15.6023 71.2143 11.5291 68.1923L3.15293 72.0355H2.95584C2.69305 72.0355 2.52882 71.9041 2.46312 71.6413C2.39742 71.4442 2.46312 71.28 2.66021 71.1486C4.43399 70.0318 5.71506 68.7507 6.50341 67.3054C7.35746 65.7944 7.78448 63.7907 7.78448 61.2942L7.78448 13.1063C7.78448 10.807 7.55454 9.16459 7.09467 8.17915C6.6348 7.12802 5.84645 6.60245 4.72962 6.60245C3.94128 6.60245 2.66021 6.99662 0.88642 7.78498H0.787876C0.525093 7.78498 0.328006 7.62074 0.196614 7.29226C0.0652222 6.96378 0.0652222 6.73384 0.196614 6.60245L13.8942 0.0985651L14.3869 2.26368e-05C14.6497 2.26368e-05 14.9453 0.131415 15.2738 0.394198C15.6023 0.656982 15.7665 0.886916 15.7665 1.084V39.4175C17.9345 37.1838 20.201 35.4101 22.566 34.0961C24.9311 32.7822 27.5918 32.1253 30.5481 32.1253ZM27.8874 70.7544C31.1065 70.7544 33.5701 69.3091 35.2782 66.4185C36.9863 63.5279 37.8403 59.4219 37.8403 54.1005C37.8403 48.3193 36.7892 43.9834 34.6869 41.0927C32.6503 38.1364 29.8911 36.6583 26.4092 36.6583C23.0588 36.6583 19.5112 38.1693 15.7665 41.1913L15.7665 56.2685C15.7665 59.6847 16.3906 62.4767 17.6389 64.6447C18.9528 66.8127 20.5295 68.3894 22.3689 69.3748C24.2741 70.2945 26.1136 70.7544 27.8874 70.7544ZM56.5313 22.0738C54.8232 22.0738 53.4764 21.6139 52.491 20.6942C51.5712 19.7745 51.1114 18.4605 51.1114 16.7525C51.1114 15.1101 51.5712 13.8618 52.491 13.0078C53.4764 12.088 54.8232 11.6282 56.5313 11.6282C58.1737 11.6282 59.4547 12.088 60.3745 13.0078C61.2942 13.8618 61.7541 15.1101 61.7541 16.7525C61.7541 18.4605 61.2942 19.7745 60.3745 20.6942C59.5204 21.6139 58.2394 22.0738 56.5313 22.0738ZM47.4653 71.4442C47.2682 71.4442 47.1696 71.2471 47.1696 70.853C47.1696 70.4588 47.2682 70.2617 47.4653 70.2617C49.6989 70.2617 51.1771 69.8018 51.8997 68.8821C52.6224 67.9623 52.9837 66.1557 52.9837 63.4622V45.5272C52.9837 43.2936 52.7538 41.684 52.2939 40.6986C51.834 39.6474 51.0457 39.1219 49.9289 39.1219C48.9434 39.1219 47.6623 39.5161 46.0856 40.3044H45.9871C45.7243 40.3044 45.5272 40.1402 45.3958 39.8117C45.2645 39.4832 45.2973 39.2533 45.4944 39.1219L59.6847 32.5194L59.9803 32.4209C60.2431 32.4209 60.5059 32.5851 60.7687 32.9136C61.0971 33.1764 61.2614 33.4063 61.2614 33.6034V35.6728C61.13 38.4321 61.0643 41.684 61.0643 45.4287V63.4622C61.0643 66.1557 61.4256 67.9623 62.1483 68.8821C62.9366 69.8018 64.4476 70.2617 66.6813 70.2617C66.8784 70.2617 66.9769 70.4588 66.9769 70.853C66.9769 71.2471 66.8784 71.4442 66.6813 71.4442C65.0389 71.4442 63.725 71.4114 62.7395 71.3457L57.024 71.2471L51.3085 71.3457C50.3887 71.4114 49.1077 71.4442 47.4653 71.4442ZM73.4438 38.5306C73.4438 40.5672 74.1337 42.2753 75.5133 43.6549C76.9586 45.0345 79.028 46.4798 81.7215 47.9908C84.0866 49.3047 85.8932 50.3887 87.1414 51.2428C88.4553 52.0968 89.5722 53.2465 90.4919 54.6918C91.4773 56.1371 91.9701 57.878 91.9701 59.9146C91.9701 62.1483 91.4117 64.2177 90.2948 66.1229C89.178 68.028 87.5028 69.5719 85.2691 70.7544C83.1011 71.9369 80.5061 72.5282 77.4841 72.5282C73.8709 72.5282 70.5532 71.6085 67.5312 69.769C67.1371 69.3748 66.94 68.9806 66.94 68.5864L66.7429 59.5204C66.7429 59.3233 66.9071 59.2248 67.2356 59.2248C67.6298 59.1591 67.8597 59.1919 67.9254 59.3233C69.0422 62.6081 70.7175 65.3017 72.9511 67.4039C75.2505 69.5062 77.6812 70.5573 80.2434 70.5573C81.8858 70.5573 83.1668 70.1303 84.0866 69.2763C85.0063 68.4222 85.4662 67.1411 85.4662 65.433C85.4662 62.9366 84.7435 60.9657 83.2982 59.5204C81.8529 58.0094 79.7506 56.5313 76.9914 55.086C74.7578 53.9034 73.0168 52.918 71.7686 52.1296C70.5204 51.2756 69.4364 50.1588 68.5167 48.7792C67.6626 47.3339 67.2356 45.5601 67.2356 43.4578C67.2356 39.7131 68.5824 36.9211 71.2759 35.0816C74.0351 33.2421 77.3527 32.3224 81.2288 32.3224C83.7909 32.3224 86.4188 32.8151 89.1123 33.8005C89.7036 34.0633 89.9992 34.4246 89.9992 34.8845C89.9992 36.3955 89.9663 37.578 89.9006 38.4321L89.8021 43.1622C89.8021 43.3593 89.605 43.4578 89.2108 43.4578C88.8167 43.4578 88.6196 43.3593 88.6196 43.1622C88.6196 41.8483 88.094 40.5015 87.0429 39.1219C85.9917 37.6766 84.645 36.494 83.0026 35.5743C81.3602 34.6546 79.685 34.1947 77.9769 34.1947C74.9549 34.1947 73.4438 35.64 73.4438 38.5306ZM120.244 65.1374C120.441 65.1374 120.605 65.2688 120.736 65.5316C120.933 65.7944 120.933 65.9915 120.736 66.1229C118.306 68.4222 116.006 70.0974 113.838 71.1486C111.67 72.134 109.371 72.6267 106.94 72.6267C104.115 72.6267 101.717 71.9698 99.7465 70.6559C97.8414 69.2763 96.8888 67.0097 96.8888 63.8563V41.5855C96.8888 39.4175 96.5274 37.9722 95.8048 37.2495C95.1478 36.5269 93.8339 36.1656 91.863 36.1656C91.7974 36.1656 91.6988 36.0999 91.5674 35.9685C91.5017 35.7714 91.4689 35.5743 91.4689 35.3772C91.4689 35.1801 91.5017 35.0159 91.5674 34.8845C91.6988 34.6874 91.7974 34.5889 91.863 34.5889C98.0385 34.3261 101.915 31.6654 103.491 26.6068C103.623 26.344 103.885 26.2126 104.28 26.2126C104.739 26.2126 104.969 26.344 104.969 26.6068V34.3918C108.057 34.3261 112.426 33.9976 118.076 33.4063C118.207 33.4063 118.338 33.6691 118.47 34.1947C118.667 34.6546 118.765 35.1801 118.765 35.7714C118.765 36.3627 118.634 36.9539 118.371 37.5452C118.174 38.1364 117.944 38.3992 117.681 38.3335C114.003 37.4795 109.765 36.9539 104.969 36.7568V60.6044C104.969 63.1665 105.593 65.0717 106.842 66.3199C108.156 67.5025 109.962 68.0937 112.262 68.0937C115.021 68.0937 117.616 67.1411 120.047 65.236L120.244 65.1374ZM143.689 32.4209C145.2 32.4209 146.645 32.9136 148.024 33.8991C149.404 34.8845 150.094 36.067 150.094 37.4466C150.094 38.6949 149.7 39.7131 148.911 40.5015C148.189 41.2898 147.17 41.684 145.857 41.684C145.002 41.684 144.28 41.5198 143.689 41.1913C143.163 40.7971 142.605 40.2716 142.013 39.6146C141.422 39.0233 140.897 38.5963 140.437 38.3335C139.977 38.005 139.418 37.8408 138.761 37.8408C138.039 37.8408 137.25 38.1364 136.396 38.7277C135.608 39.2533 134.36 40.4029 132.652 42.1767V63.4622C132.652 65.3017 132.914 66.7141 133.44 67.6996C133.966 68.6193 134.852 69.2763 136.101 69.6704C137.349 70.0646 139.188 70.2617 141.619 70.2617C141.882 70.2617 142.013 70.4588 142.013 70.853C142.013 71.2471 141.882 71.4442 141.619 71.4442C139.451 71.4442 137.71 71.4114 136.396 71.3457L128.611 71.2471L122.896 71.3457C121.976 71.4114 120.695 71.4442 119.053 71.4442C118.856 71.4442 118.757 71.2471 118.757 70.853C118.757 70.4588 118.856 70.2617 119.053 70.2617C121.286 70.2617 122.764 69.8018 123.487 68.8821C124.21 67.9623 124.571 66.1557 124.571 63.4622V44.6403C124.571 42.5381 124.308 40.9942 123.783 40.0088C123.323 39.0233 122.535 38.5306 121.418 38.5306C120.432 38.5306 118.79 39.0233 116.491 40.0088H116.392C116.129 40.0088 115.932 39.8445 115.801 39.5161C115.669 39.1876 115.702 38.9905 115.899 38.9248L128.808 32.618C129.203 32.4866 129.433 32.4209 129.498 32.4209C130.155 32.4209 130.812 33.1436 131.469 34.5889C132.126 35.9685 132.52 37.808 132.652 40.1073C135.214 37.2167 137.349 35.213 139.057 34.0961C140.765 32.9793 142.309 32.4209 143.689 32.4209ZM166.975 72.7253C163.033 72.7253 159.551 71.8055 156.529 69.9661C153.507 68.0609 151.175 65.5316 149.533 62.3782C147.89 59.1591 147.069 55.6772 147.069 51.9326C147.069 47.6623 148.12 44.0491 150.222 41.0927C152.39 38.0707 155.117 35.8371 158.402 34.3918C161.752 32.8808 165.168 32.1253 168.65 32.1253C172.658 32.1253 176.139 33.0779 179.096 34.983C182.118 36.8882 184.417 39.4175 185.994 42.5709C187.571 45.6586 188.359 48.9762 188.359 52.5238C188.359 56.4656 187.373 59.9803 185.403 63.068C183.497 66.1557 180.902 68.5536 177.618 70.2617C174.333 71.9041 170.785 72.7253 166.975 72.7253ZM169.931 70.7544C172.822 70.7544 175.023 69.4733 176.534 66.9112C178.11 64.3491 178.899 60.6044 178.899 55.6772C178.899 51.2756 178.275 47.4324 177.026 44.1476C175.844 40.8628 174.201 38.3664 172.099 36.6583C170.063 34.9502 167.829 34.0961 165.398 34.0961C162.442 34.0961 160.208 35.3115 158.697 37.7423C157.186 40.173 156.431 43.7534 156.431 48.4835C156.431 52.7538 156.989 56.597 158.106 60.0131C159.289 63.3636 160.898 65.9915 162.935 67.8966C165.037 69.8018 167.369 70.7544 169.931 70.7544ZM216.378 65.1374C216.575 65.1374 216.739 65.2688 216.87 65.5316C217.067 65.7944 217.067 65.9915 216.87 66.1229C214.44 68.4222 212.14 70.0974 209.972 71.1486C207.804 72.134 205.505 72.6267 203.074 72.6267C200.249 72.6267 197.851 71.9698 195.881 70.6559C193.975 69.2763 193.023 67.0097 193.023 63.8563V41.5855C193.023 39.4175 192.661 37.9722 191.939 37.2495C191.282 36.5269 189.968 36.1656 187.997 36.1656C187.931 36.1656 187.833 36.0999 187.701 35.9685C187.636 35.7714 187.603 35.5743 187.603 35.3772C187.603 35.1801 187.636 35.0159 187.701 34.8845C187.833 34.6874 187.931 34.5889 187.997 34.5889C194.172 34.3261 198.049 31.6654 199.625 26.6068C199.757 26.344 200.019 26.2126 200.414 26.2126C200.873 26.2126 201.103 26.344 201.103 26.6068V34.3918C204.191 34.3261 208.56 33.9976 214.21 33.4063C214.341 33.4063 214.472 33.6691 214.604 34.1947C214.801 34.6546 214.899 35.1801 214.899 35.7714C214.899 36.3627 214.768 36.9539 214.505 37.5452C214.308 38.1364 214.078 38.3992 213.816 38.3335C210.137 37.4795 205.899 36.9539 201.103 36.7568V60.6044C201.103 63.1665 201.727 65.0717 202.976 66.3199C204.29 67.5025 206.096 68.0937 208.396 68.0937C211.155 68.0937 213.75 67.1411 216.181 65.236L216.378 65.1374ZM248.494 65.236C248.626 65.236 248.757 65.3674 248.889 65.6301C249.086 65.8929 249.119 66.09 248.987 66.2214C246.556 68.4551 244.126 70.0974 241.695 71.1486C239.264 72.134 236.636 72.6267 233.811 72.6267C229.804 72.6267 226.322 71.7398 223.366 69.9661C220.475 68.1923 218.241 65.8601 216.665 62.9695C215.154 60.0788 214.398 56.9583 214.398 53.6078C214.398 49.7317 215.351 46.1842 217.256 42.9651C219.161 39.746 221.756 37.2167 225.041 35.3772C228.391 33.472 232.103 32.5194 236.176 32.5194C240.118 32.5194 243.173 33.472 245.341 35.3772C247.509 37.2824 248.593 40.1073 248.593 43.852C248.593 45.7572 248.199 46.7097 247.41 46.7097L223.366 46.8083C223.3 47.3995 223.267 48.2864 223.267 49.469C223.267 55.2502 224.581 59.8489 227.209 63.2651C229.903 66.6156 233.713 68.2908 238.64 68.2908C240.48 68.2908 242.023 68.0937 243.272 67.6996C244.52 67.2397 246.195 66.4513 248.297 65.3345L248.494 65.236ZM232.629 34.4903C230.198 34.4903 228.194 35.4429 226.618 37.3481C225.107 39.1876 224.088 41.7497 223.563 45.0345L239.33 44.7389C239.198 37.9065 236.965 34.4903 232.629 34.4903ZM293.631 70.2617C293.828 70.2617 293.927 70.4588 293.927 70.853C293.927 71.2471 293.828 71.4442 293.631 71.4442C291.989 71.4442 290.675 71.4114 289.69 71.3457L284.073 71.2471L276.682 71.3457C275.565 71.4114 274.054 71.4442 272.149 71.4442C272.017 71.4442 271.952 71.2471 271.952 70.853C271.952 70.4588 272.017 70.2617 272.149 70.2617C274.842 70.2617 276.189 69.5719 276.189 68.1923C276.189 67.601 275.926 66.9441 275.401 66.2214L263.871 51.0457L260.915 53.6078V63.4622C260.915 66.1557 261.276 67.9623 261.999 68.8821C262.787 69.8018 264.298 70.2617 266.532 70.2617C266.795 70.2617 266.926 70.4588 266.926 70.853C266.926 71.2471 266.795 71.4442 266.532 71.4442C264.889 71.4442 263.575 71.4114 262.59 71.3457L256.973 71.2471L251.356 71.3457C250.371 71.4114 249.057 71.4442 247.414 71.4442C247.217 71.4442 247.119 71.2471 247.119 70.853C247.119 70.4588 247.217 70.2617 247.414 70.2617C249.582 70.2617 251.06 69.8018 251.849 68.8821C252.637 67.8966 253.031 66.09 253.031 63.4622V13.1063C253.031 10.807 252.801 9.16459 252.341 8.17915C251.882 7.12802 251.126 6.60245 250.075 6.60245C249.09 6.60245 247.743 6.99662 246.035 7.78498H245.936C245.739 7.78498 245.542 7.62074 245.345 7.29226C245.213 6.89808 245.246 6.66815 245.443 6.60245L259.141 0.0985651L259.634 2.26368e-05C259.896 2.26368e-05 260.159 0.131415 260.422 0.394198C260.751 0.656982 260.915 0.886916 260.915 1.084V51.5384L271.459 42.0782C273.298 40.5015 274.218 38.9576 274.218 37.4466C274.218 36.5926 273.824 35.9028 273.036 35.3772C272.313 34.8516 271.262 34.5889 269.882 34.5889C269.685 34.5889 269.587 34.3918 269.587 33.9976C269.587 33.6034 269.685 33.4063 269.882 33.4063C271.722 33.4063 273.167 33.4392 274.218 33.5049L281.707 33.6034L288.704 33.5049C289.624 33.4392 290.872 33.4063 292.449 33.4063C292.646 33.4063 292.744 33.6034 292.744 33.9976C292.744 34.3918 292.646 34.5889 292.449 34.5889C289.755 34.5889 286.7 35.2787 283.284 36.6583C279.868 37.9722 276.715 39.9102 273.824 42.4724L269.587 46.1185L282.693 63.4622C284.532 65.8929 286.339 67.6339 288.113 68.685C289.887 69.7361 291.726 70.2617 293.631 70.2617ZM327.847 66.1229C328.11 66.1229 328.274 66.2871 328.339 66.6156C328.405 66.8784 328.307 67.0754 328.044 67.2068L317.894 72.0355C317.631 72.1669 317.335 72.2326 317.007 72.2326C316.021 72.2326 315.069 71.6741 314.149 70.5573C313.295 69.3748 312.737 67.8309 312.474 65.9258L307.941 69.0792C306.364 70.196 304.919 70.9843 303.605 71.4442C302.357 71.9041 300.944 72.134 299.368 72.134C296.674 72.134 294.605 71.5099 293.159 70.2617C291.78 68.9478 291.09 67.2397 291.09 65.1374C291.09 63.3636 291.55 61.9183 292.47 60.8015C293.455 59.6847 294.67 58.7978 296.116 58.1408C297.627 57.4182 299.827 56.5313 302.718 55.4801L312.277 51.9326V46.0199C312.277 41.9468 311.85 38.9905 310.996 37.151C310.207 35.2458 308.926 34.2932 307.153 34.2932C304.985 34.2932 303.408 35.1144 302.422 36.7568C301.503 38.3335 300.944 40.1073 300.747 42.0782C300.353 45.4287 298.678 47.1039 295.721 47.1039C294.276 47.1039 293.192 46.7754 292.47 46.1185C291.813 45.4615 291.484 44.6403 291.484 43.6549C291.484 41.8154 292.568 40.0416 294.736 38.3335C296.97 36.5597 299.63 35.1473 302.718 34.0961C305.871 32.9793 308.631 32.4209 310.996 32.4209C313.821 32.4209 316.054 33.3078 317.697 35.0816C319.405 36.8554 320.259 39.5161 320.259 43.0636V60.8015C320.259 62.8381 320.587 64.3819 321.244 65.433C321.901 66.4842 322.854 67.0097 324.102 67.0097C325.088 67.0097 326.27 66.7141 327.65 66.1229H327.847ZM312.277 64.3491V63.3636V53.6078L306.364 56.0714C304.656 56.7284 303.244 57.5167 302.127 58.4364C301.076 59.2905 300.55 60.5387 300.55 62.1811C300.55 63.7578 301.043 65.0389 302.028 66.0243C303.079 66.9441 304.328 67.4039 305.773 67.4039C306.955 67.4039 308.204 67.0097 309.518 66.2214L312.277 64.3491Z" fill="#D00000"/>
</svg>
